# xmcd CD database file
#
# Track frame offsets:
#	150
#	52199
#	64342
#	80987
#	101866
#	152532
#
# Disc length: 3125 seconds
#
# Revision: 0
# Processed by: cddbd v1.5.1PL0 Copyright (c) Steve Scherf et al.
# Submitted via: CDex 1.51
#
DISCID=540c3306
DTITLE=Wind Project of Schärding - MidEurope 2005
DYEAR=2005
DGENRE=Wind Band
TTITLE0=Otto M.Schwarz - The Count of Monte Cristo
TTITLE1=Thomas Doss - Concerto Tricolore I. Allegro brillante
TTITLE2=Thomas Doss - Concerto Tricolore II. Andante doloroso
TTITLE3=Thomas Doss - Concerto Tricolore III. Allegro giusto
TTITLE4=Fritz Neuböck - Poeme bleu
TTITLE5=Thomas Doss - Luceafarul
EXTD=YEAR: 2005
EXTT0=
EXTT1=
EXTT2=
EXTT3=
EXTT4=
EXTT5=
PLAYORDER=
